<svg xmlns="http://www.w3.org/2000/svg" viewBox="1525 -994 354.568 33.941"><g transform="translate(1525 -994)"><path d="M29.307.125A30.612,30.612,0,0,0,32.939,0V1a5.121,5.121,0,0,0-2.38,1.753,11.225,11.225,0,0,0-2,3.883L18.536,33.816H15.28L3.006,4.008A5.358,5.358,0,0,0,1.628,1.753,2.693,2.693,0,0,0,0,1V0C1.879.125,4.384.125,7.264.125c3.256,0,5.636,0,7.264-.125V1a10.792,10.792,0,0,0-2.63.376,1.439,1.439,0,0,0-.751,1.378,7.772,7.772,0,0,0,.626,2.254L20.164,26.3l5.886-15.781a19.388,19.388,0,0,0,1.378-5.761,3.5,3.5,0,0,0-1-2.755,4.751,4.751,0,0,0-3.006-1V0C25.425.125,27.429.125,29.307.125Z"/><path d="M44.474,1.378a2.21,2.21,0,0,0-1,1.127,11.4,11.4,0,0,0-.25,2.63V28.806a12.3,12.3,0,0,0,.25,2.63,1.528,1.528,0,0,0,1,1.127,5.493,5.493,0,0,0,2.38.376v1c-1.753-.125-4.133-.125-7.139-.125-3.382,0-5.887,0-7.515.125v-1a4.867,4.867,0,0,0,2.254-.376,2.21,2.21,0,0,0,1-1.127,7.016,7.016,0,0,0,.25-2.63V5.01a12.3,12.3,0,0,0-.25-2.63,1.778,1.778,0,0,0-1-1.127A5.233,5.233,0,0,0,32.2.877V0c1.628.125,4.133.125,7.515.125,3.131,0,5.511,0,7.139-.125V1A5.493,5.493,0,0,0,44.474,1.378Z" transform="translate(8.129)"/><path d="M80.557,1.753a2.741,2.741,0,0,0-1,1.753,24.463,24.463,0,0,0-.25,3.632V33.816h-2.38L56.134,7.64V25.926a29.829,29.829,0,0,0,.25,4.133,2.976,2.976,0,0,0,1.252,1.879,9.6,9.6,0,0,0,3.131.877v1c-1.252-.125-2.881-.125-5.135-.125a37.843,37.843,0,0,0-4.133.125v-1a4.755,4.755,0,0,0,2.254-.751,2.741,2.741,0,0,0,1-1.753,24.463,24.463,0,0,0,.25-3.632V5.01a12.3,12.3,0,0,0-.25-2.63,1.778,1.778,0,0,0-1-1.127A5.233,5.233,0,0,0,51.5.877V0a37.843,37.843,0,0,0,4.133.125A40.3,40.3,0,0,0,59.766,0L78.177,22.795V7.765a29.83,29.83,0,0,0-.25-4.133,2.976,2.976,0,0,0-1.252-1.879A9.6,9.6,0,0,0,73.543.877V0c1.252.125,2.881.125,5.135.125A37.843,37.843,0,0,0,82.811,0V1A4.755,4.755,0,0,0,80.557,1.753Z" transform="translate(13.001)"/><path d="M83.876,8.141c0-2.129-.125-4.885-.376-8.141,2.881.125,7.765.125,14.779.125,6.888,0,11.773,0,14.654-.125-.25,3.256-.376,5.886-.376,8.141a31.715,31.715,0,0,0,.125,3.632h-1A25.042,25.042,0,0,0,109.8,5.511a8.4,8.4,0,0,0-2.755-3.382,7.437,7.437,0,0,0-3.883-1h-1.127V28.305a7.934,7.934,0,0,0,.376,2.881,2.2,2.2,0,0,0,1.5,1.252,10.47,10.47,0,0,0,3.256.376v1c-4.008-.125-7.014-.125-9.018-.125s-4.885,0-8.767.125v-1a9.943,9.943,0,0,0,3.256-.376,2.276,2.276,0,0,0,1.378-1.252,8.408,8.408,0,0,0,.376-2.881V1.127h-1a7.437,7.437,0,0,0-3.883,1,8.087,8.087,0,0,0-2.755,3.256,30.79,30.79,0,0,0-2,6.262H83.625A14.861,14.861,0,0,0,83.876,8.141Z" transform="translate(21.079)"/><path d="M140.451,26.552a57.868,57.868,0,0,0,.376,7.264c-2.129-.125-5.761-.125-10.9-.125-6.888,0-12.149,0-15.53.125v-1a4.867,4.867,0,0,0,2.254-.376,2.21,2.21,0,0,0,1-1.127,7.016,7.016,0,0,0,.25-2.63V5.01a12.3,12.3,0,0,0-.25-2.63,1.778,1.778,0,0,0-1-1.127A5.233,5.233,0,0,0,114.4.877V0c3.382.125,8.642.125,15.53.125,4.634,0,8.016,0,10.02-.125-.25,2.63-.376,5.01-.376,7.014a23.264,23.264,0,0,0,.125,3.256h-1.127a22.874,22.874,0,0,0-1.5-5.511,6.376,6.376,0,0,0-2.5-2.881A6.963,6.963,0,0,0,130.807,1h-2a7.445,7.445,0,0,0-2.129.25,1.237,1.237,0,0,0-.877.877,9.33,9.33,0,0,0-.25,2.254v11.9h1.5a4.385,4.385,0,0,0,3.883-1.879,10.437,10.437,0,0,0,1.753-4.384h1.127c-.125,1.628-.125,3.006-.125,4.509v2.254c0,1.628.125,3.883.25,6.763h-1.127c-.626-4.258-2.63-6.262-5.761-6.262h-1.5V29.307a9.33,9.33,0,0,0,.25,2.254,1.237,1.237,0,0,0,.877.877,8.172,8.172,0,0,0,2.129.25h2.38a6.612,6.612,0,0,0,5.386-2.38c1.378-1.5,2.38-4.133,3.006-7.765H140.7A18.41,18.41,0,0,0,140.451,26.552Z" transform="translate(28.88)"/><path d="M152.925,9.242V8.866c0-5.135,4.384-8.266,9.769-8.266,6.888,0,9.894,3.883,9.894,10.145v1h-.751c0-7.264-3.006-10.27-8.892-10.27h-.25c-4.759,0-8.767,2.881-8.767,7.139v.376c0,4.133,2.5,6.387,9.143,7.139,7.139.877,9.769,3.883,9.769,8.517v.376c0,5.636-4.384,8.642-10.02,8.642-6.763,0-10.02-4.133-10.02-10.27v-.376h.877c0,6.513,3.256,9.894,9.143,9.894h.25c5.26,0,9.143-2.755,9.143-7.64V24.9c0-4.759-2.755-7.014-9.393-7.89C155.555,16.13,152.925,13.375,152.925,9.242Z" transform="translate(38.574 0.151)"/><path d="M186.944,33.489h-.877V1.677H177.3V.8h18.411v.877h-8.767Z" transform="translate(44.759 0.202)"/><path d="M201.3,23.344V.8h.877V23.219c0,7.64,3.256,9.769,8.892,9.769s8.892-2.129,8.892-9.769V.8h.877V23.344c0,8.141-3.883,10.4-9.769,10.4S201.3,31.485,201.3,23.344Z" transform="translate(50.817 0.202)"/><path d="M236.016,33.489H228V.8h8.016c6.888,0,11.9,4.008,11.9,15.53v1.628C248.039,29.606,243.029,33.489,236.016,33.489Zm-.125-.751c6.763,0,11.272-3.757,11.272-14.654V16.456c0-10.9-4.634-14.654-11.272-14.654H229V32.863h6.888Z" transform="translate(57.558 0.202)"/><path d="M255.577,33.489H254.7V.8h.877Z" transform="translate(64.298 0.202)"/><path d="M276.821.6c6.888,0,10.521,4.509,10.521,15.781v1.628c0,11.272-3.507,15.781-10.521,15.781S266.3,29.281,266.3,18.009V16.381C266.3,5.109,269.932.6,276.821.6ZM276.7,33.038h.251c6.262,0,9.519-4.133,9.519-14.9V16.506c0-10.771-3.256-14.9-9.519-14.9H276.7c-6.262,0-9.519,4.133-9.519,14.9v1.628C267.177,28.905,270.433,33.038,276.7,33.038Z" transform="translate(67.227 0.151)"/></g></svg>